<?xml version="1.0" encoding="UTF-8" standalone="no"?>
<svg width="119px" height="22px" viewBox="0 0 119 22" version="1.1" xmlns="http://www.w3.org/2000/svg" xmlns:xlink="http://www.w3.org/1999/xlink">
    <!-- Generator: Sketch 40.3 (33839) - http://www.bohemiancoding.com/sketch -->
    <title>Group 2</title>
    <desc>Created with Sketch.</desc>
    <defs></defs>
    <g id="Symbols" stroke="none" stroke-width="1" fill="none" fill-rule="evenodd">
        <g id="Footer" transform="translate(-1163.000000, -188.000000)">
            <g id="Group-10" transform="translate(1163.000000, 188.000000)">
                <g id="Group-2">
                    <path d="M112.670824,18.8386235 C112.670824,17.1207667 114.08424,15.7270337 115.824238,15.7270337 C117.565186,15.7270337 118.976776,17.1207667 118.976776,18.8386235 C118.976776,20.5564804 117.565186,21.949313 115.824238,21.949313 C114.08424,21.949313 112.670824,20.5564804 112.670824,18.8386235" id="path3356" fill="#86BC25"></path>
                    <path d="M12.102686,10.598219 C12.102686,8.62736534 11.7167578,7.16520624 10.9448283,6.212642 C10.1719499,5.2609781 9.001245,4.78559632 7.42731185,4.78559632 L5.75300962,4.78559632 L5.75300962,16.8376048 L7.03408404,16.8376048 C8.78233091,16.8376048 10.0634053,16.3262092 10.8791322,15.2998168 C11.6939102,14.275225 12.102686,12.7077256 12.102686,10.598219 M18.0737338,10.3929405 C18.0737338,13.9835134 17.0955915,16.7502714 15.1393069,18.692314 C13.1830223,20.6352569 10.4329095,21.6067284 6.88801966,21.6067284 L0,21.6067284 L0,0.0912012736 L7.36891529,0.0912012736 C10.7869387,0.0912012736 13.425733,0.974439007 15.2852983,2.74001413 C17.1439876,4.5064896 18.0737338,7.05626458 18.0737338,10.3929405" id="path3360" fill="#FFFFFF"></path>
                    <polygon id="path3362" fill="#FFFFFF" points="37.1537132 21.6064619 42.6347409 21.6064619 42.6347409 0.000900344275 37.1537132 0.000900344275"></polygon>
                    <path d="M50.3346187,13.5474803 C50.3346187,14.925007 50.5171079,15.9757088 50.8812104,16.6977849 C51.2461889,17.4207614 51.8574548,17.7817994 52.7169791,17.7817994 C53.5673789,17.7817994 54.1687175,17.4207614 54.5190968,16.6977849 C54.8694761,15.9757088 55.0437169,14.925007 55.0437169,13.5474803 C55.0437169,12.1771563 54.8667023,11.1435611 54.5117972,10.4457943 C54.1559432,9.74622677 53.54913,9.39599285 52.6887298,9.39599285 C51.8474544,9.39599285 51.2461889,9.74442608 50.8812104,10.4376912 C50.5171079,11.1318566 50.3346187,12.1681529 50.3346187,13.5474803 M60.6224128,13.5474803 C60.6224128,16.1719839 59.9253039,18.2193667 58.5274363,19.6869279 C57.1305177,21.1553894 55.1751091,21.8900703 52.6613564,21.8900703 C50.2506736,21.8900703 48.3317628,21.1391832 46.9074708,19.637409 C45.481354,18.1356347 44.768697,16.1062587 44.768697,13.5474803 C44.768697,10.9310798 45.4667548,8.89810247 46.8646224,7.44854818 C48.2624169,5.9989939 50.2223513,5.27421676 52.7461774,5.27421676 C54.3055844,5.27421676 55.685203,5.61004518 56.8805075,6.28080166 C58.0766879,6.95155814 59.0001565,7.91222549 59.6488692,9.16370403 C60.2985309,10.4133819 60.6224128,11.875541 60.6224128,13.5474803" id="path3366" fill="#FFFFFF"></path>
                    <polygon id="path3370" fill="#FFFFFF" points="62.7991443 21.6065483 68.281121 21.6065483 68.281121 13.3377865 68.281121 5.55791164 62.7991443 5.55791164"></polygon>
                    <polygon id="path3372" fill="#FFFFFF" points="62.7989254 3.61668295 68.280902 3.61668295 68.280902 0 62.7989254 0"></polygon>
                    <path d="M79.3872698,17.5131367 C80.1273001,17.5131367 81.0087231,17.3276658 82.0370135,16.959425 L82.0370135,20.997469 C81.2979321,21.3179916 80.5953485,21.5475794 79.9274379,21.6835314 C79.2595273,21.821284 78.4756996,21.8897102 77.5788015,21.8897102 C75.738361,21.8897102 74.4117373,21.4332357 73.5968864,20.5220873 C72.7857582,19.6109389 72.3788072,18.2118038 72.3788072,16.3237819 L72.3788072,9.70805218 L70.4590205,9.70805218 L70.4590205,5.55926576 L72.3788072,5.55926576 L72.3788072,1.46089862 L77.9027564,0.512836099 L77.9027564,5.55926576 L81.400126,5.55926576 L81.400126,9.70805218 L77.9027564,9.70805218 L77.9027564,15.9546408 C77.9027564,16.993638 78.3981781,17.5131367 79.3872698,17.5131367" id="path3376" fill="#FFFFFF"></path>
                    <path d="M92.0745783,17.5131367 C92.8146087,17.5131367 93.6960317,17.3276658 94.724322,16.959425 L94.724322,20.997469 C93.9861896,21.3179916 93.2826571,21.5475794 92.6147465,21.6835314 C91.9459599,21.821284 91.164906,21.8897102 90.26611,21.8897102 C88.4257426,21.8897102 87.0990458,21.4332357 86.2860198,20.5220873 C85.4730668,19.6109389 85.0661158,18.2118038 85.0661158,16.3237819 L85.0661158,9.70805218 L83.1453801,9.70805218 L83.1453801,5.55926576 L85.0661158,5.55926576 L85.0661158,1.39877487 L90.589116,0.512836099 L90.589116,5.55926576 L94.0883835,5.55926576 L94.0883835,9.70805218 L90.589116,9.70805218 L90.589116,15.9546408 C90.589116,16.993638 91.0846107,17.5131367 92.0745783,17.5131367" id="path3380" fill="#FFFFFF"></path>
                    <path d="M101.641248,11.5923791 C101.716069,10.7136431 101.970678,10.0698969 102.404929,9.6584396 C102.841151,9.24788262 103.379494,9.04260412 104.023681,9.04260412 C104.726265,9.04260412 105.284682,9.27309226 105.698933,9.7376699 C106.115884,10.1995465 106.333046,10.818083 106.350419,11.5923791 L101.641248,11.5923791 L101.641248,11.5923791 Z M109.371492,7.16628665 C108.068519,5.90580467 106.219903,5.27466333 103.828418,5.27466333 C101.314592,5.27466333 99.3802064,5.99944047 98.0243113,7.44899475 C96.6692923,8.89854904 95.9913813,10.9783443 95.9913813,13.6883806 C95.9913813,16.3128841 96.724112,18.3368581 98.1858508,19.7576013 C99.6484655,21.1783446 101.702345,21.8896166 104.347563,21.8896166 C105.617688,21.8896166 106.710799,21.8040839 107.626895,21.6339188 C108.537516,21.4655544 109.418939,21.1612381 110.273938,20.7218701 L109.431713,17.1051871 C108.810374,17.3554828 108.219109,17.5481565 107.660692,17.675105 C106.854089,17.8596756 105.969017,17.9524111 105.005401,17.9524111 C103.948861,17.9524111 103.114885,17.6976136 102.503546,17.1880188 C101.892207,16.6775236 101.566427,15.9734543 101.529054,15.0767114 L111.326901,15.0767114 L111.326901,12.6124692 C111.326901,10.2418627 110.675341,8.42586829 109.371492,7.16628665 L109.371492,7.16628665 Z" id="path3384" fill="#FFFFFF"></path>
                    <path d="M25.3485576,11.5923791 C25.4233782,10.7136431 25.6779872,10.0698969 26.1122386,9.6584396 C26.5475119,9.24788262 27.0867311,9.04260412 27.731867,9.04260412 C28.4326257,9.04260412 28.9910428,9.27309226 29.4062423,9.7376699 C29.8231937,10.1995465 30.0394069,10.818083 30.0586048,11.5923791 L25.3485576,11.5923791 L25.3485576,11.5923791 Z M33.0796776,7.16628665 C31.7758285,5.90580467 29.9280885,5.27466333 27.5357276,5.27466333 C25.020953,5.27466333 23.087516,5.99944047 21.732497,7.44899475 C20.3775509,8.89854904 19.6986909,10.9783443 19.6986909,13.6883806 C19.6986909,16.3128841 20.4304728,18.3368581 21.8940364,19.7576013 C23.3557752,21.1783446 25.409655,21.8896166 28.054873,21.8896166 C29.3249981,21.8896166 30.4181086,21.8040839 31.3342045,21.6339188 C32.2448258,21.4655544 33.1262488,21.1612381 33.9821233,20.7218701 L33.1390231,17.1051871 C32.5176107,17.3554828 31.9263456,17.5481565 31.3688775,17.675105 C30.5604502,17.8596756 29.6763263,17.9524111 28.7127102,17.9524111 C27.6570465,17.9524111 26.8221947,17.6976136 26.2108558,17.1880188 C25.5985679,16.6775236 25.273737,15.9734543 25.2363633,15.0767114 L35.0342103,15.0767114 L35.0342103,12.6124692 C35.0342103,10.2418627 34.3826507,8.42586829 33.0796776,7.16628665 L33.0796776,7.16628665 Z" id="path3388" fill="#FFFFFF"></path>
                </g>
            </g>
        </g>
    </g>
</svg>