<?xml version="1.0" encoding="UTF-8" standalone="no"?>
<svg width="73px" height="29px" viewBox="0 0 73 29" version="1.1" xmlns="http://www.w3.org/2000/svg" xmlns:xlink="http://www.w3.org/1999/xlink">
    <!-- Generator: Sketch 40.3 (33839) - http://www.bohemiancoding.com/sketch -->
    <title>Group</title>
    <desc>Created with Sketch.</desc>
    <defs></defs>
    <g id="Symbols" stroke="none" stroke-width="1" fill="none" fill-rule="evenodd">
        <g id="Footer" transform="translate(-1316.000000, -182.000000)" fill="#1F70C1">
            <g id="Group" transform="translate(1316.448276, 182.003527)">
                <path d="M0,0 L0,1.96652472 L14.0834157,1.96652472 L14.0834157,0 L0,0 Z M16.0787785,0 L16.0787785,1.96652472 L36.1482807,1.96652472 C36.1482799,1.96652472 34.0982919,0 31.3831519,0 L16.0787785,0 Z M40.0853066,0 L40.0853066,1.96652472 L52.2270592,1.96652472 L51.5063544,0 L40.0853066,0 Z M60.9320401,0 L60.2113353,1.96652472 L72.2428623,1.96652472 L72.2428623,0 L60.9320401,0 Z M0,3.82441595 L0,5.7909401 L14.0834157,5.7909401 L14.0834157,3.82441595 L0,3.82441595 Z M16.0787785,3.82720151 L16.0787785,5.7909401 L38.4771464,5.7909401 C38.4771464,5.79094096 38.2155444,4.2774184 37.7592677,3.82720151 L16.0787785,3.82720151 Z M40.0853066,3.82720151 L40.0853066,5.7909401 L53.5582431,5.7909401 L52.8912374,3.82720151 L40.0853066,3.82720151 Z M59.4906306,3.82720151 L58.8236255,5.7909401 L72.2428623,5.7909401 L72.2428623,3.82720151 L59.4906306,3.82720151 Z M4.04725056,7.64883191 L4.04725056,9.6181411 L10.1463897,9.6181411 L10.1463897,7.64883191 L4.04725056,7.64883191 Z M20.1260294,7.64883191 L20.1260294,9.6181411 L26.2251675,9.6181411 L26.2251675,7.64883191 L20.1260294,7.64883191 Z M32.1575564,7.64883191 L32.1575564,9.6181411 L38.2566952,9.6181411 C38.2566959,9.6181411 38.6438971,8.5781458 38.6438971,7.64883191 L32.1575564,7.64883191 Z M44.1325575,7.64883191 L44.1325575,9.6181411 L54.9459529,9.6181411 L54.2252482,7.64883191 L44.1325575,7.64883191 Z M58.1622734,7.64883191 L57.4387426,9.6181411 L68.305837,9.6181411 L68.305837,7.64883191 L58.1622734,7.64883191 Z M4.04725056,11.4760338 L4.04725056,13.4425571 L10.1463897,13.4425571 L10.1463897,11.4760338 L4.04725056,11.4760338 Z M20.1260294,11.4760338 L20.1260294,13.4425571 L35.7045536,13.4425571 C35.7045544,13.4425563 37.0077225,12.4335137 37.4229387,11.4760338 L20.1260294,11.4760338 Z M44.1325575,11.4760338 L44.1325575,13.4425571 L50.2316963,13.4425571 L50.2316963,12.3478775 L50.6188982,13.4425571 L61.791233,13.4425571 L62.2066982,12.3478775 L62.2066982,13.4425571 L68.305837,13.4425571 L68.305837,11.4760338 L56.8565259,11.4760338 L56.2488729,13.1417291 L55.6383944,11.4760338 L44.1325575,11.4760338 Z M4.04725056,15.3004497 L4.04725056,17.266973 L10.1463897,17.266973 L10.1463897,15.3004497 L4.04725056,15.3004497 Z M20.1260294,15.3004497 L20.1260294,17.266973 L37.4229387,17.266973 C37.0076327,16.3126132 35.7045536,15.3004497 35.7045536,15.3004497 L20.1260294,15.3004497 Z M44.1325575,15.3004497 L44.1325575,17.266973 L50.2316963,17.266973 L50.2316963,15.3004497 L44.1325575,15.3004497 Z M51.339603,15.3004497 L52.0772659,17.266973 L60.4543968,17.266973 L61.1553174,15.3004497 L51.339603,15.3004497 Z M62.2066982,15.3004497 L62.2066982,17.266973 L68.305837,17.266973 L68.305837,15.3004497 L62.2066982,15.3004497 Z M4.04725056,19.1248657 L4.04725056,21.091389 L10.1463897,21.091389 L10.1463897,19.1248657 L4.04725056,19.1248657 Z M20.1260294,19.1248657 L20.1260294,21.091389 L26.2251675,21.091389 L26.2251675,19.1248657 L20.1260294,19.1248657 Z M32.1575564,19.1248657 L32.1575564,21.091389 L38.6438971,21.091389 C38.6438986,20.1633254 38.2566952,19.1248657 38.2566952,19.1248657 L32.1575564,19.1248657 Z M44.1325575,19.1248657 L44.1325575,21.091389 L50.2316963,21.091389 L50.2316963,19.1248657 L44.1325575,19.1248657 Z M52.724486,19.1248657 L53.4395385,21.091389 L59.0553811,21.091389 L59.7760859,19.1248657 L52.724486,19.1248657 Z M62.2066982,19.1248657 L62.2066982,21.091389 L68.305837,21.091389 L68.305837,19.1248657 L62.2066982,19.1248657 Z M0.110224865,22.9492816 L0.110224865,24.9185908 L14.1936405,24.9185908 L14.1936405,22.9492816 L0.110224865,22.9492816 Z M16.0787785,22.9492816 L16.0787785,24.9185908 L37.7592677,24.9185908 C38.2155444,24.4676612 38.4771464,22.9492816 38.4771464,22.9492816 L16.0787785,22.9492816 Z M40.1955315,22.9492816 L40.1955315,24.9185908 L50.2316963,24.9185908 L50.2316963,22.9492816 L40.1955315,22.9492816 Z M54.1121958,22.9492816 L54.8470318,24.9185908 L57.7044137,24.9185908 L58.3940291,22.9492816 L54.1121958,22.9492816 Z M62.2066982,22.9492816 L62.2066982,24.9185908 L72.3530879,24.9185908 L72.3530879,22.9492816 L62.2066982,22.9492816 Z M0.110224865,26.7764828 L0.110224865,28.7430075 L14.1936405,28.7430075 L14.1936405,26.7764828 L0.110224865,26.7764828 Z M16.0787785,26.7764828 L16.0787785,28.7402223 L31.3831519,28.7402223 C34.0982912,28.7402209 36.1482807,26.7764828 36.1482807,26.7764828 L16.0787785,26.7764828 Z M40.1955315,26.7764828 L40.1955315,28.7430075 L50.2316963,28.7430075 L50.2316963,26.7764828 L40.1955315,26.7764828 Z M55.5055585,26.7764828 L56.212132,28.7374357 L56.333662,28.7402223 L57.0515407,26.7764828 L55.5055585,26.7764828 Z M62.2066982,26.7764828 L62.2066982,28.7430075 L72.3530879,28.7430075 L72.3530879,26.7764828 L62.2066982,26.7764828 Z" id="Shape"></path>
            </g>
        </g>
    </g>
</svg>