<?xml version="1.0" encoding="UTF-8" standalone="no"?>
<svg width="228px" height="41px" viewBox="0 0 228 41" version="1.1" xmlns="http://www.w3.org/2000/svg" xmlns:xlink="http://www.w3.org/1999/xlink">
    <!-- Generator: Sketch 40.3 (33839) - http://www.bohemiancoding.com/sketch -->
    <title>Logo</title>
    <desc>Created with Sketch.</desc>
    <defs>
        <polygon id="path-1" points="15.6686237 33.0904038 15.6686237 0.617630189 0.311007458 0.617630189 0.311007458 33.0904038"></polygon>
    </defs>
    <g id="Symbols" stroke="none" stroke-width="1" fill="none" fill-rule="evenodd">
        <g id="Footer" transform="translate(-215.000000, -97.000000)">
            <g id="Logo">
                <g transform="translate(215.000000, 97.000000)">
                    <path d="M14.2241085,4.09002075 L14.2241085,8.9102283 L13.0439186,8.9102283 C13.0122305,8.18305849 12.9210305,7.54639811 12.7703186,6.99947358 C12.6196068,6.54537925 12.3691932,6.1121717 12.0198508,5.70371887 C11.6712814,5.29449245 11.1944136,5.09026604 10.5892475,5.09026604 L8.72660339,5.09026604 L8.72660339,34.1546245 C8.72660339,34.5777755 8.78611525,34.8887566 8.90745763,35.0860208 C9.02802712,35.2832849 9.16405424,35.3962283 9.31631186,35.4271717 C9.46625085,35.5176811 9.64942373,35.5176811 9.86042034,35.4271717 L9.86042034,36.6092094 L4.36214237,36.6092094 L4.36214237,35.4271717 C4.6056,35.5176811 4.80191186,35.5176811 4.95416949,35.4271717 C5.10410847,35.3962283 5.25018305,35.2832849 5.38543729,35.0860208 C5.52146441,34.8887566 5.58947797,34.5777755 5.58947797,34.1546245 L5.58947797,5.09026604 L3.68046102,5.09026604 C3.04592542,5.09026604 2.55978305,5.29449245 2.22744407,5.70371887 C1.8943322,6.1121717 1.6663322,6.54537925 1.54653559,6.99947358 C1.36413559,7.54639811 1.25747797,8.18305849 1.22810847,8.9102283 L0,8.9102283 L0,4.09002075 L14.2241085,4.09002075 Z" id="Fill-1" fill="#FEFEFE"></path>
                    <path d="M32.9453817,35.4274038 L32.9453817,36.6094415 L27.4463308,36.6094415 L27.4463308,35.4274038 C27.6890156,35.5179132 27.8853275,35.5179132 28.0375851,35.4274038 C28.1581546,35.3964604 28.2872258,35.2827434 28.4247986,35.0862528 C28.5600529,34.8889887 28.6288393,34.577234 28.6288393,34.154083 L28.6288393,20.8724038 L21.6759986,20.8724038 L21.6759986,34.154083 C21.6759986,34.577234 21.7355105,34.8889887 21.8576258,35.0862528 C21.9789681,35.2827434 22.0995376,35.3964604 22.22088,35.4274038 C22.4025071,35.5179132 22.598819,35.5179132 22.8121342,35.4274038 L22.8121342,36.6094415 L17.3579105,36.6094415 L17.3579105,35.4274038 C17.6005953,35.5179132 17.7822224,35.5179132 17.9043376,35.4274038 C18.0550495,35.3964604 18.1988054,35.2827434 18.3363783,35.0862528 C18.4724054,34.8889887 18.540419,34.577234 18.540419,34.154083 L18.540419,6.54561132 C18.540419,6.0907434 18.4724054,5.76429057 18.3363783,5.56702642 C18.1988054,5.37053585 18.0550495,5.24134717 17.9043376,5.18023396 C17.7822224,5.12066792 17.6005953,5.12066792 17.3579105,5.18023396 L17.3579105,4.09025283 L22.8121342,4.09025283 L22.8121342,5.18023396 C22.598819,5.12066792 22.4025071,5.12066792 22.22088,5.18023396 C22.0995376,5.24134717 21.9789681,5.37053585 21.8576258,5.56702642 C21.7355105,5.76429057 21.6759986,6.0907434 21.6759986,6.54561132 L21.6759986,19.7793283 L28.6288393,19.7793283 L28.6288393,6.54561132 C28.6288393,6.0907434 28.5600529,5.76429057 28.4247986,5.56702642 C28.2872258,5.37053585 28.1581546,5.24134717 28.0375851,5.18023396 C27.8853275,5.12066792 27.6890156,5.12066792 27.4463308,5.18023396 L27.4463308,4.09025283 L32.9453817,4.09025283 L32.9453817,5.18023396 C32.7026969,5.12066792 32.4909275,5.12066792 32.3100732,5.18023396 C32.187958,5.24134717 32.0650698,5.37053585 31.9460461,5.56702642 C31.8247037,5.76429057 31.7636461,6.0907434 31.7636461,6.54561132 L31.7636461,34.154083 C31.7636461,34.577234 31.8247037,34.8889887 31.9460461,35.0862528 C32.0650698,35.2827434 32.187958,35.3964604 32.3100732,35.4274038 C32.4909275,35.5179132 32.7026969,35.5179132 32.9453817,35.4274038" id="Fill-3" fill="#FEFEFE"></path>
                    <path d="M49.577402,31.8329415 L49.577402,36.6090547 L36.8990563,36.6090547 L36.8990563,35.427017 C37.1401953,35.5183 37.3218224,35.5183 37.4439376,35.427017 C37.5946495,35.3960736 37.7399512,35.2831302 37.8752054,35.0866396 C38.0127783,34.8886019 38.0792461,34.5776208 38.0792461,34.1544698 L38.0792461,6.54599811 C38.0792461,6.0903566 38.0127783,5.76467736 37.8752054,5.56663962 C37.7399512,5.37014906 37.5946495,5.24096038 37.4439376,5.18062075 C37.3218224,5.12105472 37.1401953,5.12105472 36.8990563,5.18062075 L36.8990563,4.08986604 L49.577402,4.08986604 L49.577402,8.86520566 L48.3956664,8.86520566 C48.3655241,8.16820566 48.2743241,7.5462434 48.1228393,6.99931887 C47.9713546,6.54599811 47.720941,6.11201698 47.3723715,5.70433774 C47.0245749,5.29433774 46.5469342,5.09011132 45.9409953,5.09011132 L41.2148258,5.09011132 L41.2148258,19.8261302 L44.3967783,19.8261302 C44.789402,19.8261302 45.0931444,19.7201491 45.3056868,19.5089604 C45.5166834,19.2962245 45.6697139,19.0525453 45.760141,18.7802434 C45.8807105,18.4468283 45.9409953,18.0677717 45.9409953,17.6415264 L46.9867037,17.6415264 L46.9867037,23.2384132 L45.9409953,23.2384132 C45.9409953,22.8144887 45.8807105,22.4501302 45.760141,22.1453377 C45.6697139,21.842866 45.5166834,21.5783 45.3056868,21.350866 C45.0931444,21.1234321 44.789402,21.0097151 44.3967783,21.0097151 L41.2148258,21.0097151 L41.2148258,35.5183 L45.9409953,35.5183 C46.5469342,35.5183 47.0245749,35.335734 47.3723715,34.9729226 C47.720941,34.6077906 47.9713546,34.183866 48.1228393,33.6996019 C48.2743241,33.1542245 48.3655241,32.5314887 48.3956664,31.8329415 L49.577402,31.8329415 Z" id="Fill-5" fill="#FEFEFE"></path>
                    <path d="M69.2934508,5.1805434 L69.2934508,20.9647698 L71.7458034,20.9647698 C72.0194034,20.9647698 72.3440136,20.8796755 72.7227254,20.7133547 C73.1022102,20.5485811 73.4654644,20.2894302 73.8148068,19.9405434 C74.1618305,19.590883 74.4648,19.1375623 74.7213966,18.5767132 C74.979539,18.0150906 75.1093831,17.3405245 75.1093831,16.5506943 L75.1093831,9.63871321 C75.1093831,8.88137358 74.979539,8.22227925 74.7213966,7.6606566 C74.4648,7.09903396 74.1618305,6.6356566 73.8148068,6.27361887 C73.4654644,5.90848679 73.1022102,5.63541132 72.7227254,5.45284528 C72.3440136,5.2726 72.0194034,5.1805434 71.7458034,5.1805434 L69.2934508,5.1805434 Z M78.3809898,35.7007887 C78.5935322,35.7007887 78.7597017,35.6690717 78.8802712,35.6079585 C79.0016136,35.5476189 79.1229559,35.4896 79.2442983,35.4277132 L79.2442983,36.4271849 C79.0634441,36.5795811 78.8354441,36.7226943 78.5633898,36.8603925 C78.2905627,36.9957698 77.9257627,37.0638453 77.4720814,37.0638453 C77.0779119,37.0638453 76.6845153,36.988034 76.2911186,36.8364113 C75.8969492,36.6855623 75.5336949,36.4426566 75.1998102,36.1092415 C74.8666983,35.7750528 74.5876881,35.3433925 74.3596881,34.8142604 C74.132461,34.282034 74.0033898,33.6229396 73.9747932,32.8362038 L73.9747932,25.3749774 C73.9747932,24.7089208 73.8820475,24.1681849 73.7011932,23.7605057 C73.5187932,23.3520528 73.2830644,23.0402981 72.9963254,22.8283358 C72.7080407,22.6163736 72.3981153,22.4717132 72.0650034,22.3943547 C71.7318915,22.3224113 71.428922,22.2674868 71.1560949,22.2357698 L69.2934508,22.2357698 L69.2934508,34.1543925 C69.2934508,34.5775434 69.3521898,34.8885245 69.475078,35.0865623 C69.5956475,35.2830528 69.7162169,35.3967698 69.8383322,35.4277132 C70.0191864,35.5182226 70.2170441,35.5182226 70.4288136,35.4277132 L70.4288136,36.6089774 L64.9761356,36.6089774 L64.9761356,35.4277132 C65.1879051,35.5182226 65.3703051,35.5182226 65.5210169,35.4277132 C65.6725017,35.3967698 65.8170305,35.2830528 65.9538305,35.0865623 C66.0890847,34.8885245 66.1578712,34.5775434 66.1578712,34.1543925 L66.1578712,6.50105283 C66.1578712,6.07558113 66.0890847,5.75763774 65.9538305,5.54567547 C65.8170305,5.33371321 65.6725017,5.19524151 65.5210169,5.13490189 C65.3703051,5.10627925 65.1879051,5.10627925 64.9761356,5.13490189 L64.9761356,4.04414717 L71.474522,4.04414717 C72.5936542,4.04414717 73.5875797,4.2321283 74.4508881,4.61350566 C75.3134237,4.99101509 76.0329763,5.48456226 76.6087729,6.09027925 C77.1845695,6.69676981 77.6158373,7.39531698 77.904122,8.18282642 C78.1924068,8.97110943 78.3361627,9.78956226 78.3361627,10.6389585 L78.3361627,15.5984113 C78.3361627,16.7796755 78.0331932,17.932317 77.4264814,19.0532415 C76.8205424,20.1757132 75.8814915,21.0096377 74.6101017,21.5550151 C76.3359458,22.2512415 77.1992542,23.5856755 77.1992542,25.5552226 L77.1992542,32.8362038 C77.1992542,33.6229396 77.2518102,34.2975057 77.3592407,34.8591283 C77.4643525,35.4207509 77.8051932,35.7007887 78.3809898,35.7007887 L78.3809898,35.7007887 Z" id="Fill-7" fill="#FEFEFE"></path>
                    <path d="M101.612567,31.8329415 L101.612567,36.6090547 L88.934221,36.6090547 L88.934221,35.427017 C89.1761329,35.5183 89.3585329,35.5183 89.4783295,35.427017 C89.6298142,35.3960736 89.7743431,35.2831302 89.9103702,35.0866396 C90.0463973,34.8886019 90.1159566,34.5776208 90.1159566,34.1544698 L90.1159566,6.54599811 C90.1159566,6.0903566 90.0463973,5.76467736 89.9103702,5.56663962 C89.7743431,5.37014906 89.6298142,5.24096038 89.4783295,5.18062075 C89.3585329,5.12105472 89.1761329,5.12105472 88.934221,5.18062075 L88.934221,4.08986604 L101.612567,4.08986604 L101.612567,8.86520566 L100.430831,8.86520566 C100.400689,8.16820566 100.308716,7.5462434 100.157231,6.99931887 C100.006519,6.54599811 99.7561058,6.11201698 99.4083092,5.70433774 C99.0597397,5.29433774 98.582099,5.09011132 97.97616,5.09011132 L93.2499905,5.09011132 L93.2499905,19.8261302 L96.4303973,19.8261302 C96.8245668,19.8261302 97.1275363,19.7201491 97.3408515,19.5089604 C97.552621,19.2962245 97.7041058,19.0525453 97.7953058,18.7802434 C97.9166481,18.4468283 97.97616,18.0677717 97.97616,17.6415264 L99.0210956,17.6415264 L99.0210956,23.2384132 L97.97616,23.2384132 C97.97616,22.8144887 97.9166481,22.4501302 97.7953058,22.1453377 C97.7041058,21.842866 97.552621,21.5783 97.3408515,21.350866 C97.1275363,21.1234321 96.8245668,21.0097151 96.4303973,21.0097151 L93.2499905,21.0097151 L93.2499905,35.5183 L97.97616,35.5183 C98.582099,35.5183 99.0597397,35.335734 99.4083092,34.9729226 C99.7561058,34.6077906 100.006519,34.183866 100.157231,33.6996019 C100.308716,33.1542245 100.400689,32.5314887 100.430831,31.8329415 L101.612567,31.8329415 Z" id="Fill-9" fill="#FEFEFE"></path>
                    <path d="M111.927209,17.6417585 C113.956023,20.251834 115.432226,22.6692868 116.357365,24.8964377 C117.281732,27.1259094 117.546057,29.3182491 117.15266,31.4703623 C116.97026,32.1665887 116.735304,32.8434755 116.448565,33.494834 C116.160281,34.1461925 115.789298,34.7317962 115.334071,35.2454566 C114.879616,35.7606642 114.321596,36.1776264 113.653054,36.4947962 C112.98683,36.8135132 112.183806,36.9875698 111.244755,37.0192868 C110.639589,37.048683 110.085433,36.9341925 109.587698,36.6781358 C109.087643,36.4189849 108.639372,36.1930981 108.245203,35.9950604 C107.851806,35.7985698 107.541881,35.7157962 107.313881,35.7451925 C107.087426,35.7745887 106.956809,36.0948528 106.92744,36.6990226 L105.745704,36.6990226 L105.745704,28.6050038 L106.974586,28.6050038 C106.883386,29.2726075 106.860199,29.9007585 106.905799,30.4933245 C106.952172,31.0835698 107.034098,31.6521547 107.154667,32.1959849 C107.276009,32.6524 107.428267,33.1010792 107.609121,33.5404755 C107.791521,33.9798717 108.034979,34.3813623 108.336403,34.7449472 C108.639372,35.1077585 109.018084,35.4133245 109.474084,35.6562302 C109.926993,35.8968151 110.487332,36.0345132 111.154328,36.0639094 C111.609555,36.0948528 112.108064,35.9734 112.653718,35.7010981 C113.198599,35.4272491 113.637596,35.0783623 113.972254,34.6528906 C114.728904,33.6224755 115.046559,32.5162491 114.925216,31.3326642 C114.804647,30.1514 114.456077,28.9995321 113.880281,27.8770604 C113.305257,26.7553623 112.622803,25.6870415 111.836782,24.6690038 C111.046898,23.654834 110.381447,22.7814566 109.837338,22.0550604 C108.776172,20.7817396 107.93605,19.5223434 107.313881,18.279966 C106.692484,17.0375887 106.230301,15.8393057 105.928104,14.6874377 C105.625908,13.5355698 105.47365,12.4200604 105.47365,11.3432302 C105.47365,10.2679472 105.579535,9.24449434 105.79285,8.27596604 C106.184701,6.81853208 106.814599,5.68832453 107.677908,4.88456981 C108.541216,4.08158868 109.837338,3.68009811 111.563182,3.68009811 C112.138979,3.68009811 112.661447,3.82243774 113.130586,4.11253208 C113.600498,4.39953208 114.009352,4.65094717 114.358694,4.86290943 C114.706491,5.07409811 114.971589,5.1669283 115.153216,5.13521132 C115.334071,5.10581509 115.455413,4.7724 115.517243,4.13651321 L116.789406,4.13651321 L116.789406,12.0936075 L115.517243,12.0936075 C115.577528,10.7003811 115.471643,9.50132453 115.198043,8.50262642 C114.985501,7.59211698 114.608335,6.75819245 114.063454,5.99853208 C113.517026,5.24119245 112.698545,4.86290943 111.609555,4.86290943 C111.002843,4.86290943 110.435548,4.98436226 109.906125,5.22572075 C109.374382,5.4694 108.943115,5.78889057 108.610776,6.18109811 C107.881948,7.21306038 107.541881,8.25043774 107.587481,9.29709811 C107.631535,10.3429849 107.888904,11.3679849 108.358816,12.3659094 C108.827955,13.3692491 109.410708,14.3168906 110.10862,15.2096075 C110.806532,16.1038717 111.410152,16.9161358 111.927209,17.6417585" id="Fill-11" fill="#FEFEFE"></path>
                    <path d="M130.60466,30.5596208 L130.60466,25.9676208 C130.60466,24.1783189 130.617799,22.3279038 130.648715,20.4163755 C130.617799,18.5373377 130.60466,16.7101302 130.60466,14.9370736 L130.60466,10.3644132 C130.60466,8.45520566 130.268457,7.1207717 129.603006,6.36343208 C128.936782,5.60609245 128.119847,5.22548868 127.149881,5.22548868 C126.178369,5.22548868 125.361433,5.60609245 124.695209,6.36343208 C124.028986,7.1207717 123.696647,8.45520566 123.696647,10.3644132 L123.696647,20.4163755 L123.696647,30.5596208 C123.696647,32.4711491 123.991115,33.8287906 124.583142,34.6317717 C125.173623,35.4339792 126.043115,35.8354698 127.194708,35.8354698 C128.345528,35.8354698 129.202654,35.4339792 129.76222,34.6317717 C130.324104,33.8287906 130.60466,32.4711491 130.60466,30.5596208 M133.738694,20.4163755 L133.738694,25.5553 C133.738694,27.0119604 133.70005,28.2790925 133.625081,29.3551491 C133.548565,30.4312057 133.413311,31.3409415 133.214681,32.0843566 C133.018369,32.8285453 132.723901,33.4876396 132.328959,34.0624132 C131.723793,34.9729226 130.950911,35.6614132 130.011087,36.1325264 C129.072809,36.6036396 128.119847,36.8364887 127.149881,36.8364887 C126.210057,36.8364887 125.26405,36.6036396 124.308769,36.1325264 C123.355033,35.6614132 122.574423,34.9729226 121.969257,34.0624132 C121.574315,33.4876396 121.28062,32.8285453 121.084308,32.0843566 C120.885677,31.3409415 120.748877,30.4312057 120.673135,29.3551491 C120.598165,28.2790925 120.560294,27.0119604 120.560294,25.5553 L120.560294,20.4163755 C120.560294,17.7799981 120.574979,15.5899792 120.605121,13.8463189 C120.636037,12.1011113 120.771291,10.6545075 121.014748,9.50109245 C121.135318,8.53179057 121.438287,7.67543208 121.923657,6.93279057 C122.407481,6.18937547 122.998735,5.58907358 123.696647,5.13497925 C124.817325,4.43875283 125.968918,4.08986604 127.149881,4.08986604 C127.724132,4.08986604 128.314613,4.17960189 128.921325,4.36216792 C129.526491,4.54473396 130.08683,4.80156415 130.60466,5.13497925 C131.300254,5.58907358 131.898464,6.18937547 132.397745,6.93279057 C132.896254,7.67543208 133.194586,8.53179057 133.285786,9.50109245 C133.494464,10.6545075 133.625081,12.1011113 133.671454,13.8463189 C133.714735,15.5899792 133.738694,17.7799981 133.738694,20.4163755" id="Fill-13" fill="#FEFEFE"></path>
                    <path d="M149.279097,31.8329415 L149.279097,36.6090547 L137.056751,36.6090547 L137.056751,35.427017 C137.29789,35.5183 137.478744,35.5183 137.601633,35.427017 C137.752344,35.3960736 137.903056,35.2831302 138.056087,35.0866396 C138.206799,34.8886019 138.283314,34.5776208 138.283314,34.1544698 L138.283314,6.54599811 C138.283314,6.0903566 138.206799,5.76467736 138.056087,5.56663962 C137.903056,5.37014906 137.752344,5.24096038 137.601633,5.18062075 C137.478744,5.12105472 137.29789,5.12105472 137.056751,5.18062075 L137.056751,4.08986604 L142.552711,4.08986604 L142.552711,5.18062075 C142.312344,5.12105472 142.099029,5.12105472 141.918175,5.18062075 C141.796833,5.24096038 141.67549,5.37014906 141.554148,5.56663962 C141.432805,5.76467736 141.373294,6.0903566 141.373294,6.54599811 L141.373294,35.427017 L145.645009,35.427017 C146.28109,35.427017 146.764914,35.2529604 147.098026,34.9040736 C147.431138,34.556734 147.673049,34.1382245 147.825307,33.6539604 C147.977565,33.1379792 148.068765,32.5314887 148.098134,31.8329415 L149.279097,31.8329415 Z" id="Fill-15" fill="#FEFEFE"></path>
                    <path d="M157.640437,4.09002075 L157.640437,5.18077547 C157.42944,5.12120943 157.246267,5.12120943 157.095555,5.18077547 C156.943298,5.24111509 156.805725,5.37030377 156.686701,5.56679434 C156.565359,5.76483208 156.503528,6.09051132 156.503528,6.54537925 L156.503528,8.18305849 L156.503528,12.1855868 C156.503528,13.7923226 156.511257,15.558417 156.526715,17.4830962 C156.542945,19.4100962 156.549128,21.2218321 156.549128,22.9183038 L156.549128,27.3083981 L156.549128,29.5595302 C156.549128,31.8957566 156.800315,33.5489075 157.299596,34.5174358 C157.800423,35.4890585 158.533887,35.9733226 159.503854,35.9733226 L159.548681,35.9733226 L159.595054,35.9733226 C160.502416,35.9733226 161.221969,35.4890585 161.752165,34.5174358 C162.283135,33.5489075 162.548233,31.8957566 162.548233,29.5595302 L162.548233,26.0126434 L162.548233,23.6918887 L162.548233,6.54537925 C162.548233,6.09051132 162.494132,5.76483208 162.38902,5.56679434 C162.283135,5.37030377 162.154064,5.24111509 162.003352,5.18077547 C161.820952,5.12120943 161.622321,5.12120943 161.412098,5.18077547 L161.412098,4.09002075 L166.819948,4.09002075 L166.819948,5.18077547 C166.637548,5.12120943 166.455921,5.12120943 166.273521,5.18077547 C166.122809,5.24111509 165.994511,5.37030377 165.887854,5.56679434 C165.781969,5.76483208 165.72864,6.09051132 165.72864,6.54537925 L165.72864,30.7872094 C165.72864,31.7588321 165.540057,32.6298887 165.160572,33.4027 C164.780315,34.1755113 164.289535,34.8353792 163.684369,35.3823038 C163.079203,35.9276811 162.412206,36.336134 161.684152,36.6092094 C160.957643,36.8815113 160.24582,37.0192094 159.548681,37.0192094 C158.822172,37.0192094 158.094891,36.8815113 157.367609,36.6092094 C156.639555,36.336134 155.981833,35.9276811 155.392898,35.3823038 C154.800871,34.8353792 154.330186,34.1832472 153.982389,33.4266811 C153.63382,32.6685679 153.459148,31.8029264 153.459148,30.8336245 L153.459148,29.5370962 L153.459148,26.6709642 L153.459148,22.7813792 C153.459148,21.3572094 153.45142,19.9028698 153.436735,18.4168132 C153.421277,16.929983 153.413548,15.476417 153.413548,14.0514736 L153.413548,10.2291906 L153.413548,7.56805849 L153.413548,6.54537925 C153.413548,6.09051132 153.345535,5.76483208 153.210281,5.56679434 C153.073481,5.37030377 152.928952,5.24111509 152.77824,5.18077547 C152.657671,5.12120943 152.474498,5.12120943 152.233359,5.18077547 L152.233359,4.09002075 L157.640437,4.09002075 Z" id="Fill-17" fill="#FEFEFE"></path>
                    <path d="M183.995382,4.09002075 L183.995382,8.9102283 L182.813646,8.9102283 C182.783504,8.18305849 182.692304,7.54639811 182.541592,6.99947358 C182.389334,6.54537925 182.140466,6.1121717 181.791897,5.70371887 C181.442555,5.29449245 180.965687,5.09026604 180.359748,5.09026604 L178.497877,5.09026604 L178.497877,34.1546245 C178.497877,34.5777755 178.558161,34.8887566 178.679504,35.0860208 C178.798527,35.2832849 178.935327,35.3962283 179.088358,35.4271717 C179.23907,35.5176811 179.420697,35.5176811 179.631694,35.4271717 L179.631694,36.6092094 L174.134961,36.6092094 L174.134961,35.4271717 C174.376873,35.5176811 174.573958,35.5176811 174.725443,35.4271717 C174.8777,35.3962283 175.021456,35.2832849 175.156711,35.0860208 C175.292738,34.8887566 175.361524,34.5777755 175.361524,34.1546245 L175.361524,5.09026604 L173.454053,5.09026604 C172.816426,5.09026604 172.331056,5.29449245 171.998717,5.70371887 C171.665605,6.1121717 171.437605,6.54537925 171.318582,6.99947358 C171.135409,7.54639811 171.027205,8.18305849 170.998609,8.9102283 L169.772819,8.9102283 L169.772819,4.09002075 L183.995382,4.09002075 Z" id="Fill-19" fill="#FEFEFE"></path>
                    <path d="M190.992818,34.1544698 C190.992818,34.5776208 191.062377,34.8886019 191.196858,35.0866396 C191.332885,35.2831302 191.461184,35.3960736 191.583299,35.4277906 C191.735557,35.5183 191.931868,35.5183 192.17378,35.4277906 L192.17378,36.6090547 L186.676275,36.6090547 L186.676275,35.4277906 C186.91896,35.5183 187.129184,35.5183 187.311584,35.4277906 C187.402784,35.3960736 187.51717,35.2831302 187.651652,35.0866396 C187.789997,34.8886019 187.856465,34.5776208 187.856465,34.1544698 L187.856465,6.54599811 C187.856465,6.0903566 187.789997,5.76467736 187.651652,5.56663962 C187.51717,5.37092264 187.402784,5.24096038 187.311584,5.18062075 C187.129184,5.12105472 186.91896,5.12105472 186.676275,5.18062075 L186.676275,4.08986604 L192.17378,4.08986604 L192.17378,5.18062075 C191.931868,5.12105472 191.735557,5.12105472 191.583299,5.18062075 C191.461184,5.24096038 191.332885,5.37092264 191.196858,5.56663962 C191.062377,5.76467736 190.992818,6.0903566 190.992818,6.54599811 L190.992818,34.1544698 Z" id="Fill-21" fill="#FEFEFE"></path>
                    <path d="M205.625471,30.5596208 L205.625471,25.9676208 C205.625471,24.1783189 205.640929,22.3279038 205.671071,20.4163755 C205.640929,18.5373377 205.625471,16.7101302 205.625471,14.9370736 L205.625471,10.3644132 C205.625471,8.45520566 205.291586,7.1207717 204.626136,6.36343208 C203.959912,5.60609245 203.141431,5.22548868 202.171464,5.22548868 C201.202271,5.22548868 200.384563,5.60609245 199.716793,6.36343208 C199.051342,7.1207717 198.719003,8.45520566 198.719003,10.3644132 L198.719003,20.4163755 L198.719003,30.5596208 C198.719003,32.4711491 199.013471,33.8287906 199.603953,34.6317717 C200.19598,35.4339792 201.065471,35.8354698 202.217064,35.8354698 C203.367112,35.8354698 204.22501,35.4339792 204.784576,34.6317717 C205.344915,33.8287906 205.625471,32.4711491 205.625471,30.5596208 M208.761824,20.4163755 L208.761824,25.5553 C208.761824,27.0119604 208.72318,28.2790925 208.647437,29.3551491 C208.570922,30.4312057 208.434895,31.3409415 208.238583,32.0843566 C208.042271,32.8285453 207.744712,33.4876396 207.352088,34.0624132 C206.746149,34.9729226 205.973268,35.6614132 205.03499,36.1325264 C204.095939,36.6036396 203.141431,36.8364887 202.171464,36.8364887 C201.232414,36.8364887 200.286407,36.6036396 199.331898,36.1325264 C198.378163,35.6614132 197.59678,34.9729226 196.991614,34.0624132 C196.596671,33.4876396 196.302203,32.8285453 196.106664,32.0843566 C195.908807,31.3409415 195.771234,30.4312057 195.695492,29.3551491 C195.621295,28.2790925 195.582651,27.0119604 195.582651,25.5553 L195.582651,20.4163755 C195.582651,17.7799981 195.597336,15.5899792 195.628251,13.8463189 C195.658393,12.1011113 195.793647,10.6545075 196.037105,9.50109245 C196.15922,8.53179057 196.461417,7.67543208 196.946014,6.93279057 C197.429837,6.18937547 198.021092,5.58907358 198.719003,5.13497925 C199.839681,4.43875283 200.990502,4.08986604 202.171464,4.08986604 C202.746488,4.08986604 203.339288,4.17960189 203.943681,4.36216792 C204.548847,4.54473396 205.110732,4.80156415 205.625471,5.13497925 C206.321064,5.58907358 206.919275,6.18937547 207.420102,6.93279057 C207.920156,7.67543208 208.215397,8.53179057 208.308142,9.50109245 C208.518366,10.6545075 208.647437,12.1011113 208.693037,13.8463189 C208.737864,15.5899792 208.761824,17.7799981 208.761824,20.4163755" id="Fill-23" fill="#FEFEFE"></path>
                    <g id="Group-27" transform="translate(211.769492, 3.518883)">
                        <mask id="mask-2" fill="white">
                            <use xlink:href="#path-1"></use>
                        </mask>
                        <g id="Clip-26"></g>
                        <path d="M11.668499,0.617630189 L15.6689329,0.617630189 L15.6689329,1.75325283 C15.3953329,1.69291321 15.1688786,1.69291321 14.9864786,1.75325283 C14.8349939,1.81436604 14.6904651,1.94200755 14.554438,2.14004528 C14.4191837,2.3388566 14.3511702,2.64829057 14.3511702,3.07221509 L14.3511702,33.0904038 L10.5331363,33.0904038 L2.98981424,6.98346038 L2.98981424,30.6358189 C2.98981424,31.0589698 3.0578278,31.3614415 3.1946278,31.5447811 C3.3314278,31.7265736 3.47441085,31.8480264 3.62589559,31.908366 C3.80674983,31.9702528 4.03474983,31.9702528 4.30757695,31.908366 L4.30757695,33.0904038 L0.311007458,33.0904038 L0.311007458,31.908366 C0.550600678,31.9702528 0.763915932,31.9702528 0.944770169,31.908366 C1.09548203,31.8480264 1.24851254,31.7265736 1.39922441,31.5447811 C1.54993627,31.3614415 1.62567864,31.0589698 1.62567864,30.6358189 L1.62567864,3.07221509 C1.62567864,2.64829057 1.54993627,2.3388566 1.39922441,2.14004528 C1.24851254,1.94200755 1.09548203,1.81436604 0.944770169,1.75325283 C0.763915932,1.69291321 0.550600678,1.69291321 0.311007458,1.75325283 L0.311007458,0.617630189 L4.94365831,0.617630189 L12.9870346,28.2694226 L12.9870346,3.07221509 C12.9870346,2.64829057 12.9105193,2.3388566 12.7598075,2.14004528 C12.6075498,1.94200755 12.4576108,1.81436604 12.3053532,1.75325283 C12.1237261,1.69291321 11.9104108,1.69291321 11.668499,1.75325283 L11.668499,0.617630189 Z" id="Fill-25" fill="#FEFEFE" mask="url(#mask-2)"></path>
                    </g>
                    <polygon id="Fill-28" fill="#FEFEFE" points="85.5873356 40.6509585 59.0504542 40.6509585 59.0504542 0.00216603774 79.3269966 0.00216603774 79.6469695 1.15171321 60.1997288 1.15171321 60.1997288 39.5014113 84.4372881 39.5014113 84.4372881 6.8406566 85.5873356 7.4301283"></polygon>
                    <polygon id="Fill-30" fill="#FEFEFE" points="79.3288515 0 85.5845532 7.43260377 79.3288515 7.43260377"></polygon>
                </g>
            </g>
        </g>
    </g>
</svg>